<?xml version="1.0" encoding="utf-8"?>
<!-- Generator: Adobe Illustrator 19.2.1, SVG Export Plug-In . SVG Version: 6.00 Build 0)  -->
<svg version="1.1" id="Layer_1" xmlns="http://www.w3.org/2000/svg" xmlns:xlink="http://www.w3.org/1999/xlink" x="0px" y="0px"
	 viewBox="0 0 604.3 179.4" style="enable-background:new 0 0 604.3 179.4;" xml:space="preserve">
<style type="text/css">
	.st0{fill:#FFFFFF;}
</style>
<g>
	<g>
		<path class="st0" d="M21.7,159.5c0,2.9-1,5.2-3.1,6.8c-2.1,1.6-5,2.4-8.6,2.4c-3.9,0-6.9-0.5-9-1.5v-3.7c1.4,0.6,2.8,1,4.4,1.4
			s3.2,0.5,4.7,0.5c2.6,0,4.5-0.5,5.8-1.5c1.3-1,1.9-2.3,1.9-4c0-1.1-0.2-2.1-0.7-2.8c-0.5-0.7-1.2-1.4-2.3-2
			c-1.1-0.6-2.7-1.3-4.9-2.1c-3.1-1.1-5.2-2.4-6.6-3.9s-2-3.5-2-5.9c0-2.5,1-4.6,2.9-6.1c1.9-1.5,4.4-2.3,7.6-2.3
			c3.3,0,6.3,0.6,9,1.8l-1.2,3.3c-2.7-1.1-5.4-1.7-7.9-1.7c-2,0-3.6,0.4-4.8,1.3c-1.1,0.9-1.7,2.1-1.7,3.6c0,1.1,0.2,2.1,0.6,2.8
			c0.4,0.7,1.1,1.4,2.1,2c1,0.6,2.5,1.3,4.6,2c3.5,1.2,5.8,2.6,7.1,4C21.1,155.5,21.7,157.3,21.7,159.5z"/>
		<path class="st0" d="M37.2,168.7c-3.6,0-6.5-1.1-8.6-3.3c-2.1-2.2-3.2-5.3-3.2-9.3c0-4,1-7.1,2.9-9.5c2-2.3,4.6-3.5,7.9-3.5
			c3.1,0,5.5,1,7.3,3c1.8,2,2.7,4.7,2.7,8v2.4h-17c0.1,2.9,0.8,5.1,2.2,6.6c1.4,1.5,3.3,2.3,5.9,2.3c2.7,0,5.3-0.6,7.9-1.7v3.3
			c-1.3,0.6-2.6,1-3.7,1.2C40.3,168.6,38.8,168.7,37.2,168.7z M36.2,146.3c-2,0-3.6,0.6-4.7,1.9c-1.2,1.3-1.9,3.1-2.1,5.4h12.9
			c0-2.4-0.5-4.2-1.6-5.4C39.6,146.9,38.1,146.3,36.2,146.3z"/>
		<path class="st0" d="M62.7,143.2c1.1,0,2.1,0.1,2.9,0.3l-0.5,3.5c-1-0.2-1.9-0.3-2.7-0.3c-2,0-3.7,0.8-5.1,2.4
			c-1.4,1.6-2.1,3.6-2.1,6.1v13.2h-3.7v-24.7h3.1l0.4,4.6h0.2c0.9-1.6,2-2.8,3.3-3.7C59.7,143.6,61.2,143.2,62.7,143.2z"/>
		<path class="st0" d="M74.5,168.3l-9.4-24.7h4l5.3,14.6c1.2,3.4,1.9,5.6,2.1,6.7h0.2c0.2-0.8,0.7-2.4,1.6-4.9
			c0.9-2.5,2.8-7.9,5.9-16.4h4l-9.4,24.7H74.5z"/>
		<path class="st0" d="M101.5,168.7c-3.6,0-6.5-1.1-8.6-3.3c-2.1-2.2-3.2-5.3-3.2-9.3c0-4,1-7.1,2.9-9.5c2-2.3,4.6-3.5,7.9-3.5
			c3.1,0,5.5,1,7.3,3c1.8,2,2.7,4.7,2.7,8v2.4h-17c0.1,2.9,0.8,5.1,2.2,6.6c1.4,1.5,3.3,2.3,5.9,2.3c2.7,0,5.3-0.6,7.9-1.7v3.3
			c-1.3,0.6-2.6,1-3.7,1.2C104.6,168.6,103.1,168.7,101.5,168.7z M100.5,146.3c-2,0-3.6,0.6-4.7,1.9c-1.2,1.3-1.9,3.1-2.1,5.4h12.9
			c0-2.4-0.5-4.2-1.6-5.4C103.9,146.9,102.4,146.3,100.5,146.3z"/>
		<path class="st0" d="M127,143.2c1.1,0,2.1,0.1,2.9,0.3l-0.5,3.5c-1-0.2-1.9-0.3-2.7-0.3c-2,0-3.7,0.8-5.1,2.4
			c-1.4,1.6-2.1,3.6-2.1,6.1v13.2h-3.7v-24.7h3.1l0.4,4.6h0.2c0.9-1.6,2-2.8,3.3-3.7C124.1,143.6,125.5,143.2,127,143.2z"/>
		<path class="st0" d="M149.3,161.6c0,2.3-0.9,4.1-2.6,5.3s-4.1,1.9-7.2,1.9c-3.3,0-5.8-0.5-7.7-1.6v-3.5c1.2,0.6,2.5,1.1,3.8,1.4
			c1.4,0.3,2.7,0.5,3.9,0.5c2,0,3.5-0.3,4.5-0.9c1-0.6,1.6-1.6,1.6-2.8c0-1-0.4-1.8-1.2-2.5c-0.8-0.7-2.5-1.5-4.9-2.4
			c-2.3-0.9-3.9-1.6-4.9-2.2c-1-0.6-1.7-1.4-2.2-2.2c-0.5-0.8-0.7-1.8-0.7-2.9c0-2,0.8-3.6,2.5-4.8c1.6-1.2,3.9-1.7,6.7-1.7
			c2.7,0,5.3,0.5,7.8,1.6l-1.3,3c-2.5-1-4.7-1.5-6.7-1.5c-1.8,0-3.1,0.3-4,0.8c-0.9,0.6-1.4,1.3-1.4,2.3c0,0.7,0.2,1.2,0.5,1.7
			c0.3,0.5,0.9,0.9,1.6,1.3c0.7,0.4,2.2,1,4.3,1.8c2.9,1.1,4.9,2.1,5.9,3.2C148.8,158.6,149.3,159.9,149.3,161.6z"/>
		<path class="st0" d="M227.5,159.5c0,2.9-1,5.2-3.2,6.8c-2.1,1.6-5,2.4-8.6,2.4c-3.9,0-6.9-0.5-9-1.5v-3.7c1.4,0.6,2.8,1,4.4,1.4
			s3.2,0.5,4.7,0.5c2.6,0,4.5-0.5,5.8-1.5c1.3-1,1.9-2.3,1.9-4c0-1.1-0.2-2.1-0.7-2.8c-0.5-0.7-1.2-1.4-2.3-2
			c-1.1-0.6-2.7-1.3-4.9-2.1c-3.1-1.1-5.2-2.4-6.6-3.9c-1.3-1.5-2-3.5-2-5.9c0-2.5,1-4.6,2.9-6.1c1.9-1.5,4.4-2.3,7.6-2.3
			c3.3,0,6.3,0.6,9,1.8l-1.2,3.3c-2.7-1.1-5.4-1.7-7.9-1.7c-2,0-3.6,0.4-4.7,1.3c-1.1,0.9-1.7,2.1-1.7,3.6c0,1.1,0.2,2.1,0.6,2.8
			c0.4,0.7,1.1,1.4,2.1,2c1,0.6,2.5,1.3,4.6,2c3.4,1.2,5.8,2.6,7.1,4C226.9,155.5,227.5,157.3,227.5,159.5z"/>
		<path class="st0" d="M240.5,165.7c0.7,0,1.3,0,1.9-0.1c0.6-0.1,1.1-0.2,1.5-0.3v2.9c-0.4,0.2-1,0.4-1.8,0.5
			c-0.8,0.1-1.5,0.2-2.1,0.2c-4.8,0-7.2-2.5-7.2-7.5v-14.7h-3.5v-1.8l3.5-1.6l1.6-5.3h2.2v5.7h7.2v2.9h-7.2V161
			c0,1.5,0.4,2.6,1.1,3.4C238.3,165.3,239.3,165.7,240.5,165.7z"/>
		<path class="st0" d="M268.9,155.9c0,4-1,7.2-3,9.4c-2,2.3-4.8,3.4-8.4,3.4c-2.2,0-4.2-0.5-5.9-1.6c-1.7-1-3-2.5-4-4.5
			c-0.9-1.9-1.4-4.2-1.4-6.8c0-4,1-7.2,3-9.4c2-2.2,4.8-3.4,8.4-3.4c3.5,0,6.2,1.1,8.2,3.4C267.9,148.9,268.9,152,268.9,155.9z
			 M250.1,155.9c0,3.2,0.6,5.6,1.9,7.2c1.3,1.7,3.1,2.5,5.6,2.5c2.4,0,4.3-0.8,5.6-2.5c1.3-1.6,1.9-4,1.9-7.2c0-3.1-0.6-5.5-1.9-7.1
			c-1.3-1.6-3.1-2.4-5.6-2.4c-2.4,0-4.3,0.8-5.5,2.4C250.8,150.4,250.1,152.8,250.1,155.9z"/>
		<path class="st0" d="M285.6,143.2c1.1,0,2.1,0.1,2.9,0.3l-0.5,3.5c-1-0.2-1.9-0.3-2.7-0.3c-2,0-3.7,0.8-5.1,2.4
			c-1.4,1.6-2.1,3.6-2.1,6.1v13.2h-3.7v-24.7h3.1l0.4,4.6h0.2c0.9-1.6,2-2.8,3.3-3.7C282.6,143.6,284,143.2,285.6,143.2z"/>
		<path class="st0" d="M307.2,168.3l-0.7-3.5h-0.2c-1.2,1.5-2.5,2.6-3.7,3.1c-1.2,0.5-2.7,0.8-4.6,0.8c-2.4,0-4.4-0.6-5.7-1.9
			c-1.4-1.3-2.1-3.1-2.1-5.4c0-5,4-7.6,12-7.8l4.2-0.1V152c0-1.9-0.4-3.4-1.2-4.3c-0.8-0.9-2.2-1.4-4-1.4c-2.1,0-4.4,0.6-7,1.9
			l-1.1-2.9c1.2-0.7,2.5-1.2,4-1.6c1.4-0.4,2.9-0.6,4.4-0.6c2.9,0,5.1,0.7,6.5,2c1.4,1.3,2.1,3.4,2.1,6.3v16.8H307.2z M298.7,165.7
			c2.3,0,4.2-0.6,5.5-1.9s2-3.1,2-5.4v-2.2l-3.7,0.2c-3,0.1-5.1,0.6-6.4,1.4c-1.3,0.8-2,2.1-2,3.8c0,1.4,0.4,2.4,1.2,3.1
			C296.1,165.3,297.3,165.7,298.7,165.7z"/>
		<path class="st0" d="M336.7,143.6v2.4l-4.6,0.5c0.4,0.5,0.8,1.2,1.1,2.1c0.3,0.8,0.5,1.8,0.5,2.9c0,2.4-0.8,4.3-2.5,5.8
			c-1.7,1.4-3.9,2.2-6.8,2.2c-0.7,0-1.4-0.1-2.1-0.2c-1.6,0.8-2.4,1.9-2.4,3.2c0,0.7,0.3,1.2,0.8,1.5c0.6,0.3,1.5,0.5,2.9,0.5h4.4
			c2.7,0,4.7,0.6,6.2,1.7s2.1,2.8,2.1,4.9c0,2.7-1.1,4.8-3.3,6.2c-2.2,1.4-5.4,2.1-9.6,2.1c-3.2,0-5.7-0.6-7.5-1.8
			c-1.7-1.2-2.6-2.9-2.6-5.1c0-1.5,0.5-2.8,1.4-3.9s2.3-1.8,4.1-2.2c-0.6-0.3-1.2-0.7-1.6-1.3c-0.4-0.6-0.6-1.3-0.6-2.1
			c0-0.9,0.2-1.7,0.7-2.4c0.5-0.7,1.2-1.3,2.3-2c-1.3-0.5-2.3-1.4-3.1-2.7c-0.8-1.3-1.2-2.7-1.2-4.3c0-2.7,0.8-4.8,2.4-6.2
			c1.6-1.5,3.9-2.2,6.9-2.2c1.3,0,2.5,0.2,3.5,0.5H336.7z M317,172.4c0,1.3,0.6,2.3,1.7,3c1.1,0.7,2.7,1,4.8,1c3.1,0,5.5-0.5,7-1.4
			s2.3-2.2,2.3-3.8c0-1.3-0.4-2.3-1.2-2.8c-0.8-0.5-2.4-0.8-4.7-0.8h-4.5c-1.7,0-3,0.4-4,1.2C317.5,169.8,317,170.9,317,172.4z
			 M319,151.5c0,1.7,0.5,3,1.5,3.9c1,0.9,2.3,1.3,4.1,1.3c3.6,0,5.5-1.8,5.5-5.3c0-3.7-1.8-5.6-5.5-5.6c-1.8,0-3.1,0.5-4.1,1.4
			C319.5,148.3,319,149.7,319,151.5z"/>
		<path class="st0" d="M351,168.7c-3.6,0-6.5-1.1-8.6-3.3c-2.1-2.2-3.2-5.3-3.2-9.3c0-4,1-7.1,2.9-9.5c2-2.3,4.6-3.5,7.9-3.5
			c3.1,0,5.5,1,7.3,3c1.8,2,2.7,4.7,2.7,8v2.4h-17c0.1,2.9,0.8,5.1,2.2,6.6c1.4,1.5,3.3,2.3,5.9,2.3c2.7,0,5.3-0.6,7.9-1.7v3.3
			c-1.3,0.6-2.6,1-3.7,1.2C354.1,168.6,352.7,168.7,351,168.7z M350,146.3c-2,0-3.6,0.6-4.7,1.9c-1.2,1.3-1.9,3.1-2.1,5.4h12.9
			c0-2.4-0.5-4.2-1.6-5.4C353.4,146.9,351.9,146.3,350,146.3z"/>
		<path class="st0" d="M438.5,159.5c0,2.9-1,5.2-3.2,6.8c-2.1,1.6-5,2.4-8.6,2.4c-3.9,0-6.9-0.5-9-1.5v-3.7c1.4,0.6,2.8,1,4.4,1.4
			c1.6,0.3,3.2,0.5,4.7,0.5c2.6,0,4.5-0.5,5.8-1.5c1.3-1,1.9-2.3,1.9-4c0-1.1-0.2-2.1-0.7-2.8c-0.5-0.7-1.2-1.4-2.3-2
			c-1.1-0.6-2.7-1.3-4.9-2.1c-3.1-1.1-5.2-2.4-6.6-3.9c-1.3-1.5-2-3.5-2-5.9c0-2.5,1-4.6,2.9-6.1c1.9-1.5,4.4-2.3,7.6-2.3
			c3.3,0,6.3,0.6,9,1.8l-1.2,3.3c-2.7-1.1-5.4-1.7-7.9-1.7c-2,0-3.6,0.4-4.7,1.3c-1.1,0.9-1.7,2.1-1.7,3.6c0,1.1,0.2,2.1,0.6,2.8
			s1.1,1.4,2.1,2c1,0.6,2.5,1.3,4.6,2c3.4,1.2,5.8,2.6,7.1,4C437.9,155.5,438.5,157.3,438.5,159.5z"/>
		<path class="st0" d="M464.8,155.9c0,4-1,7.2-3,9.4c-2,2.3-4.8,3.4-8.4,3.4c-2.2,0-4.2-0.5-5.9-1.6c-1.7-1-3-2.5-4-4.5
			c-0.9-1.9-1.4-4.2-1.4-6.8c0-4,1-7.2,3-9.4c2-2.2,4.8-3.4,8.4-3.4c3.5,0,6.2,1.1,8.2,3.4C463.8,148.9,464.8,152,464.8,155.9z
			 M446,155.9c0,3.2,0.6,5.6,1.9,7.2c1.3,1.7,3.1,2.5,5.6,2.5c2.4,0,4.3-0.8,5.6-2.5c1.3-1.6,1.9-4,1.9-7.2c0-3.1-0.6-5.5-1.9-7.1
			s-3.1-2.4-5.6-2.4c-2.4,0-4.3,0.8-5.5,2.4C446.7,150.4,446,152.8,446,155.9z"/>
		<path class="st0" d="M474,168.3h-3.7v-35h3.7V168.3z"/>
		<path class="st0" d="M484.2,143.6v16c0,2,0.5,3.5,1.4,4.5c0.9,1,2.3,1.5,4.3,1.5c2.6,0,4.5-0.7,5.7-2.1c1.2-1.4,1.8-3.7,1.8-6.9
			v-13h3.7v24.7H498l-0.5-3.3h-0.2c-0.8,1.2-1.8,2.1-3.2,2.8c-1.4,0.6-2.9,1-4.6,1c-3,0-5.2-0.7-6.7-2.1c-1.5-1.4-2.2-3.7-2.2-6.8
			v-16.1H484.2z"/>
		<path class="st0" d="M515.8,165.7c0.7,0,1.3,0,1.9-0.1c0.6-0.1,1.1-0.2,1.5-0.3v2.9c-0.4,0.2-1,0.4-1.8,0.5
			c-0.8,0.1-1.5,0.2-2.1,0.2c-4.8,0-7.2-2.5-7.2-7.5v-14.7h-3.5v-1.8l3.5-1.6l1.6-5.3h2.2v5.7h7.2v2.9h-7.2V161
			c0,1.5,0.4,2.6,1.1,3.4C513.6,165.3,514.6,165.7,515.8,165.7z"/>
		<path class="st0" d="M522.7,136.9c0-0.9,0.2-1.5,0.6-1.9c0.4-0.4,0.9-0.6,1.6-0.6c0.6,0,1.1,0.2,1.6,0.6s0.7,1,0.7,1.9
			c0,0.8-0.2,1.5-0.7,1.9c-0.4,0.4-1,0.6-1.6,0.6c-0.6,0-1.2-0.2-1.6-0.6C522.9,138.4,522.7,137.8,522.7,136.9z M526.7,168.3H523
			v-24.7h3.7V168.3z"/>
		<path class="st0" d="M554.8,155.9c0,4-1,7.2-3,9.4c-2,2.3-4.8,3.4-8.4,3.4c-2.2,0-4.2-0.5-5.9-1.6c-1.7-1-3-2.5-4-4.5
			c-0.9-1.9-1.4-4.2-1.4-6.8c0-4,1-7.2,3-9.4c2-2.2,4.8-3.4,8.4-3.4c3.5,0,6.2,1.1,8.2,3.4C553.8,148.9,554.8,152,554.8,155.9z
			 M536,155.9c0,3.2,0.6,5.6,1.9,7.2c1.3,1.7,3.1,2.5,5.6,2.5c2.4,0,4.3-0.8,5.6-2.5c1.3-1.6,1.9-4,1.9-7.2c0-3.1-0.6-5.5-1.9-7.1
			s-3.1-2.4-5.6-2.4c-2.4,0-4.3,0.8-5.5,2.4C536.6,150.4,536,152.8,536,155.9z"/>
		<path class="st0" d="M577.1,168.3v-16c0-2-0.5-3.5-1.4-4.5c-0.9-1-2.3-1.5-4.3-1.5c-2.6,0-4.5,0.7-5.7,2.1
			c-1.2,1.4-1.8,3.7-1.8,6.9v12.9h-3.7v-24.7h3l0.6,3.4h0.2c0.8-1.2,1.8-2.2,3.2-2.8c1.4-0.7,2.9-1,4.6-1c3,0,5.2,0.7,6.7,2.1
			c1.5,1.4,2.3,3.7,2.3,6.9v16.1H577.1z"/>
		<path class="st0" d="M603.2,161.6c0,2.3-0.9,4.1-2.6,5.3s-4.1,1.9-7.2,1.9c-3.3,0-5.8-0.5-7.7-1.6v-3.5c1.2,0.6,2.5,1.1,3.8,1.4
			c1.4,0.3,2.7,0.5,3.9,0.5c2,0,3.5-0.3,4.5-0.9c1-0.6,1.6-1.6,1.6-2.8c0-1-0.4-1.8-1.2-2.5c-0.8-0.7-2.5-1.5-4.9-2.4
			c-2.3-0.9-3.9-1.6-4.9-2.2c-1-0.6-1.7-1.4-2.2-2.2c-0.5-0.8-0.7-1.8-0.7-2.9c0-2,0.8-3.6,2.5-4.8c1.6-1.2,3.9-1.7,6.7-1.7
			c2.7,0,5.3,0.5,7.8,1.6l-1.3,3c-2.5-1-4.7-1.5-6.7-1.5c-1.8,0-3.1,0.3-4,0.8c-0.9,0.6-1.3,1.3-1.3,2.3c0,0.7,0.2,1.2,0.5,1.7
			c0.3,0.5,0.9,0.9,1.6,1.3c0.7,0.4,2.2,1,4.3,1.8c2.9,1.1,4.9,2.1,5.9,3.2C602.7,158.6,603.2,159.9,603.2,161.6z"/>
	</g>
	<g>
		<path class="st0" d="M176.5,135.3h3.2v33h-3.2V135.3z"/>
	</g>
	<g>
		<path class="st0" d="M387.4,135.3h3.2v33h-3.2V135.3z"/>
	</g>
	<path class="st0" d="M0.7,0.6h38.8c15.1,0,26.4,2.2,33.7,6.7c7.3,4.5,11,11.5,11,21c0,6.2-1.6,11.6-4.8,16
		c-3.2,4.4-7.4,7.3-12.6,8.5v0.8c6.9,1.8,11.9,4.9,15,9.1c3.1,4.3,4.6,9.8,4.6,16.6c0,10.1-3.8,18.1-11.4,23.9
		c-7.6,5.8-17.9,8.7-31,8.7H0.7V0.6z M30.8,43.3h9.1c4.3,0,7.7-0.9,10-2.7c2.4-1.8,3.5-4.4,3.5-7.9c0-6.2-4.7-9.4-14.2-9.4h-8.5
		V43.3z M30.8,65.3v23.4h10.6c9.4,0,14.1-4,14.1-11.9c0-3.7-1.3-6.5-3.8-8.5c-2.5-2-6.2-3-10.9-3H30.8z"/>
	<path class="st0" d="M287.2,77.3c0,6.7-1.8,12.6-5.3,17.8c-3.5,5.2-8.6,9.2-15.1,12.1c-6.6,2.9-14.3,4.3-23.2,4.3
		c-7.4,0-13.6-0.5-18.7-1.5c-5-1-10.3-2.8-15.7-5.3V78.7c5.7,2.8,11.7,5.1,17.9,6.7c6.2,1.6,11.9,2.4,17.1,2.4
		c4.5,0,7.7-0.7,9.8-2.2c2.1-1.5,3.1-3.4,3.1-5.8c0-1.5-0.4-2.8-1.3-3.9c-0.8-1.1-2.2-2.2-4-3.3c-1.9-1.1-6.8-3.4-14.8-6.9
		c-7.3-3.2-12.7-6.3-16.3-9.3c-3.6-3-6.3-6.4-8.1-10.3c-1.8-3.9-2.6-8.5-2.6-13.8c0-9.9,3.7-17.6,11.2-23.2
		c7.5-5.5,17.7-8.3,30.8-8.3c11.5,0,23.3,2.6,35.2,7.7L278,30.9C267.6,26.3,258.6,24,251,24c-3.9,0-6.8,0.7-8.5,2
		c-1.8,1.3-2.7,3-2.7,4.9c0,2.1,1.1,4,3.4,5.7c2.3,1.7,8.4,4.7,18.4,9.1c9.6,4.2,16.3,8.6,20,13.4C285.3,64,287.2,70,287.2,77.3z"/>
	<path class="st0" d="M347,111.9h-30.1V25.2h-27.2V0.6h84.3v24.6H347V111.9z"/>
	<path class="st0" d="M485,56.2c0,18.2-4.6,32-13.8,41.5c-9.2,9.5-22.6,14.2-40.3,14.2c-17.5,0-30.8-4.8-40.2-14.3
		c-9.3-9.5-14-23.4-14-41.6c0-18,4.6-31.7,13.9-41.2c9.3-9.5,22.7-14.2,40.4-14.2c17.7,0,31.1,4.7,40.3,14.1
		C480.5,24.2,485,38,485,56.2z M408.4,56.2c0,20.9,7.5,31.4,22.5,31.4c7.6,0,13.3-2.5,16.9-7.6c3.7-5.1,5.5-13,5.5-23.7
		c0-10.8-1.9-18.8-5.6-23.9c-3.7-5.2-9.3-7.7-16.7-7.7C416,24.6,408.4,35.1,408.4,56.2z"/>
	<path class="st0" d="M603.3,111.9h-39.4l-40.7-78.4h-0.7c1,12.3,1.4,21.7,1.4,28.2v50.2h-26.6V0.6h39.3L577.1,78h0.5
		c-0.7-11.2-1.1-20.2-1.1-27V0.6h26.8V111.9z"/>
	<g>
		<path class="st0" d="M129.9,56.4l-0.3,0c0.8,0.1,1,0.1,1,0.1s0,0,0.2-0.1l0.2,0c-0.2,0-0.5,0-0.6,0
			C130.3,56.5,129.9,56.4,129.9,56.4z"/>
		<path class="st0" d="M126.4,3.9c0,0.1-0.1,0.4-0.1,0.4s0,0.2,0,0.4c0,0.2-0.1,0.5-0.1,0.5l-0.1,0.3L126,5.7l-0.3,0.7l-8.2,27.1
			l-0.1,0.5l0.1,0.2l0.4,0.3l0.3,0.3l0.2,0.6l0,0.5l-0.1,0.4l-0.3,0.3l-0.1,0.3l-0.1,0.2l0,0.2l0.1,0.3l0.1,0.2l0,0.3l0,0.3
			l-0.1,0.2l-0.1,0.2l-0.3,0.2l-0.5,0.5l-0.1,0.1L117,40l0.1,0.2l0.2-0.1l0.3-0.1l0.4-0.2l0.2-0.2l0.6-0.4l0.4,0l0.4-0.1l0.5,0
			l0.5,0l0.6-0.2l0-0.2l0-0.6l1.4-5.4l0.7-2.3l1.4-2.1l1.5-1.2l1.2-0.6c0,0,1.6-0.3,1.8-0.3c0.1,0,0.9-0.2,0.9-0.2l0.7-0.2l0.4-0.2
			l0.4-0.2l1.3-2.1l0.4-0.2l0.2-0.1l0-0.3l-0.2-0.2l-0.2-0.2l-0.5-0.5l-0.4-0.5l-0.1-0.3l-0.1-0.2l-0.1-0.5l-0.2-1.7l0.1-1.2
			l0.3-1.3l0.6-1.5l0.4-1l0.8-1.1l0.5-0.7l0.8-0.5l1-0.3l1-0.2l1.1-0.2l0.7-0.1l0.9,0l0.9,0.2l0.9,0.3l1,0.5l1.1,0.8l2.1,1.5
			l0.8,0.9l0.3,0.6l0.2,0.4c0,0,0,0.3,0,0.4c0,0.1,0.1,0.3,0.1,0.3l0.2,0.3l0.2,0.2l0.1,0.2l1.2,0.8c0,0,0.5,0.3,0.7,0.4
			c0.2,0.1,0.3,0,0.5,0.1c0.2,0.1,0.3,0.1,0.4,0.2c0.1,0,0.2,0,0.4,0.1c0.2,0.1,0.1,0.1,0.3,0.1c0.1,0.1,0.1,0,0.3,0.1
			c0.2,0.1,0.4,0.1,0.4,0.1s0.2,0.1,0.3,0.2c0.1,0.1,0.1,0.1,0.2,0.2c0.1,0.1,0.1,0.1,0.1,0.1l0.1,0.3l0,0.2l-0.1,0.2l-0.1,0.2
			l-0.2,0l-0.7,0.1c0,0-0.5-0.1-0.6-0.1c-0.1,0-0.3,0-0.4,0c-0.1,0-0.1,0-0.2,0.2c-0.1,0.1-0.3,0.4-0.3,0.4l-0.5,0.8l-0.2,0.4
			c0,0-0.1,0.1-0.1,0.2c-0.1,0.1-0.2,0.4-0.2,0.4l-0.1,0.4c0,0-0.1,0.1-0.2,0.3c-0.1,0.1,0,0.1-0.1,0.2c-0.1,0.2-0.3,0.5-0.3,0.5
			l-0.3,0.3l-0.1,0.1l0,0.2l0.2,0.2c0,0,0,0.1,0.2,0.1c0.2,0,0.2,0,0.2,0l0.2,0.1l0.5,0.2l0.2,0.2l0.3,0.2L153,28l2.2,2.4l1.4,1.8
			l1.4,2l0.4,0.7c0,0,0.2,0.4,0.2,0.5c0,0.1,0.2,0.6,0.2,0.6l-0.1,2.8l0,1.1l-0.2,1.1c0,0,0,0.3,0,0.7c0,0.3,0,0.6,0,0.8
			c0.1,0.2,0.1,0.3,0.2,0.6c0.1,0.2,0.1,0.5,0.1,0.8c0.1,0.2,0.1,0.4,0.1,0.7c0,0.3,0.1,0.4,0.1,0.6c0,0.3,0.1,0.5,0.2,1
			c0,0.4,0.1,1.2,0.1,1.2l0.6,4.2l0.2,1.5l0.1,1.2c0,0,0.1,0.9,0.1,1c0,0.1,0,0,0,0.4c0.1,0.4,0.2,0.7,0.2,0.7s0.2,0.3,0.3,0.5
			c0.1,0.1,0.2,0.2,0.4,0.3c0.2,0.2,0.9,1,0.9,1s0.4,0.7,0.4,0.8c0,0.1,0.2,0.5,0.2,0.5l0.4,1.3l0.5,0.8L164,62l0.8,1.2l0.4,0.6
			l2.3,2.5l1.9,1.8l1.5,1.7l1.3,1.5l2,2.7l1.3,2.3l1.4,2.6l1.2,2.5l1.2,2.5l0.9,1.9l0.4,1.2l0.1,0.8c0,0,0.1,0.4,0.1,0.5
			c0,0.1,0.1,0.4,0.1,0.5l0.4,0.6l1.3,2.2c0,0,0.1,0.2,0.2,0.3c0,0.1,0.2,0.4,0.2,0.4l0.1,0.2l0.2,0.2c0,0,0.2,0.2,0.2,0.3
			c0.1,0.1,0.3,0.4,0.3,0.4l0.4,1.1l0.1,0.7c0,0,0,0.2,0.1,0.4c0,0.1,0.1,0.3,0.1,0.3l0.3,0.4l0.3,0.2l0.2,0.3l1.1,1.9l0.3,0.6
			c0.4-0.4,0.8-0.7,1.2-1.1c9.2-9.5,13.8-23.4,13.8-41.7c0-18.4-4.6-32.3-13.7-41.7c-9.1-9.5-22.6-14.2-40.3-14.2c-8,0-15,1-21.3,3
			C126.4,3.7,126.4,3.8,126.4,3.9z"/>
		<path class="st0" d="M117.2,105.7l0.2-1.2l1-2.3l0.9-2.1l0.1-1.1l0-1.3l0.7-1l1-1.7l0.9-2.1l0.8-2.3l0.7-1.7l1.3-1.7l1-1.5
			l0.7-2.2l0.8-3.3l0.8-3.4l0.9-2.8l0.7-2l0.8-1.8l1-2l1.6-2.3l1.7-3l1-2.5l0.5-1.4l0-0.6l-0.3-0.3l-0.9-0.6l-0.4-0.5l-0.3-0.3
			l-0.4-0.3l-0.4,0l-2.8,0.4l-0.8,0c0,0,0,0-0.3,0c-0.3,0-0.3,0-0.3,0l-0.1-0.2l-0.1,0l0,0c0,0,0,0-0.1,0c-0.1,0-0.1,0-0.1-0.1
			l0.4-0.1l0.4-0.6v-0.1l-0.7-0.1l-0.4-0.1l-0.7-0.1l-0.5-0.1l-0.4,0.1l-0.6,0l-0.6-0.4l-1.6-0.9l-2.7-1.2l-2.3-1l-2.6-1l-1.9-0.4
			l-0.9-0.2l-0.7,0l-0.3,0.2l-0.1,0.9l-0.1,0.8l0,0.3c0,0-0.8,0.1-0.9,0.1c-0.1,0-1.6-0.2-1.6-0.2l-0.5-0.3c0,0-0.1-0.4,0-0.5
			c0.1-0.1,0.5-1.4,0.5-1.4l0.2-0.6l-0.4-0.5l-0.9-0.6L109,47l0.2-0.7l0.3-1.3l-0.1-0.4l-0.3-0.4l-0.2-0.2l0-0.4l0.2-0.4l1-1.1
			l0-0.9l0.3-0.5l0.2-0.8l0.1-0.7l0.3-0.6l0.2-0.2l0.5-0.7l0-0.7l0-0.8l0.6-0.3l0.3-0.6l0.4-1.2l4.8-25.4l0.4-1.9
			c-4.2,2.2-7.8,4.8-11,8.1C98,24.5,93.4,38.3,93.4,56.4c0,18.3,4.6,32.2,14,41.8C110.2,101.2,113.6,103.7,117.2,105.7z"/>
		<path class="st0" d="M127.8,55.1c0.2,0,0.2,0,0.4,0c0.1,0,0.1,0,0.3-0.1c0.1,0,0.3-0.1,0.3-0.1l-0.8,0.1l-0.3,0.1
			C127.7,55.1,127.7,55.1,127.8,55.1z"/>
		<path class="st0" d="M177.9,105.1l-0.7-0.8l-0.5-0.8l-0.3-0.9l-0.1-1.2l-0.5-0.8l-1.8-3.2l-1.1-1.8l-0.8-0.8l-0.3-0.5l0-1l0-0.2
			l0-0.3l-0.2-0.3l-0.3-0.1l-0.4-0.2l-0.6-0.5l-5.2-5l-2.2-2l-2.9-2.1l-3.5-2.8l-3.6-2.1l-1.3-0.8l-0.9-0.8l-0.2-0.3
			c0,0-0.4,0.6-0.5,0.7c-0.1,0-0.4,0.2-0.4,0.2l-0.3,0.1l-0.5,0.1l-0.4,0.1l-0.2,0.2l0,0.5l0,0.5l0,0.5l-0.2,0.7c0,0-0.4,1-0.5,1.1
			c-0.1,0.1-0.6,0.8-0.8,1c-0.1,0.2-4.7,6-4.7,6l-1.6,2.2l-0.6,1.1l-0.9,1.1l-1.1,0.7l-1.2,1.7l-0.7,0.8l-0.6,1.2
			c0,0-0.1,0.7-0.1,0.8c-0.1,0.1-0.3,0.3-0.4,0.5c-0.1,0.2-0.3,0.4-0.4,0.7c-0.1,0.3-0.2,0.4-0.3,0.6c-0.1,0.1-0.5,0.5-0.5,0.5
			l-0.8,0.5l-1,1.4l-0.4,1l-0.4,1.1l-0.6,1.7l-0.4,1.2l-1.2,1.7l-1.1,0.7l-1.5,1.2c6.3,2,13.4,3.1,21.4,3.1c12.4,0,22.7-2.4,30.9-7
			L177.9,105.1z"/>
	</g>
</g>
</svg>
